<?xml version="1.0"?>
    <svg width="12" height="6"
        viewBox="0 0 12 6"
        viewport-fill="red"
        xmlns="http://www.w3.org/2000/svg">
    <rect x="0" y="0" width="12" height="6" fill="#f0f0f0"/>
    <rect x="0" y="3" width="1" height="1" fill="#ff38b6" stroke="#f0f0f0" stroke-width="0.02"/><rect x="11" y="3" width="1" height="1" fill="#ff38b6" stroke="#f0f0f0" stroke-width="0.02"/><rect x="0" y="5" width="1" height="1" fill="#ff38b6" stroke="#f0f0f0" stroke-width="0.02"/><rect x="11" y="5" width="1" height="1" fill="#ff38b6" stroke="#f0f0f0" stroke-width="0.02"/><rect x="1" y="1" width="1" height="1" fill="#ff38b6" stroke="#f0f0f0" stroke-width="0.02"/><rect x="10" y="1" width="1" height="1" fill="#ff38b6" stroke="#f0f0f0" stroke-width="0.02"/><rect x="1" y="4" width="1" height="1" fill="#ff38b6" stroke="#f0f0f0" stroke-width="0.02"/><rect x="10" y="4" width="1" height="1" fill="#ff38b6" stroke="#f0f0f0" stroke-width="0.02"/><rect x="1" y="5" width="1" height="1" fill="#ff38b6" stroke="#f0f0f0" stroke-width="0.02"/><rect x="10" y="5" width="1" height="1" fill="#ff38b6" stroke="#f0f0f0" stroke-width="0.02"/><rect x="2" y="2" width="1" height="1" fill="#ff38b6" stroke="#f0f0f0" stroke-width="0.02"/><rect x="9" y="2" width="1" height="1" fill="#ff38b6" stroke="#f0f0f0" stroke-width="0.02"/><rect x="2" y="4" width="1" height="1" fill="#ff38b6" stroke="#f0f0f0" stroke-width="0.02"/><rect x="9" y="4" width="1" height="1" fill="#ff38b6" stroke="#f0f0f0" stroke-width="0.02"/><rect x="3" y="0" width="1" height="1" fill="#ff38b6" stroke="#f0f0f0" stroke-width="0.02"/><rect x="8" y="0" width="1" height="1" fill="#ff38b6" stroke="#f0f0f0" stroke-width="0.02"/><rect x="3" y="3" width="1" height="1" fill="#ff38b6" stroke="#f0f0f0" stroke-width="0.02"/><rect x="8" y="3" width="1" height="1" fill="#ff38b6" stroke="#f0f0f0" stroke-width="0.02"/><rect x="4" y="0" width="1" height="1" fill="#ff38b6" stroke="#f0f0f0" stroke-width="0.02"/><rect x="7" y="0" width="1" height="1" fill="#ff38b6" stroke="#f0f0f0" stroke-width="0.02"/><rect x="4" y="5" width="1" height="1" fill="#ff38b6" stroke="#f0f0f0" stroke-width="0.02"/><rect x="7" y="5" width="1" height="1" fill="#ff38b6" stroke="#f0f0f0" stroke-width="0.02"/><rect x="5" y="2" width="1" height="1" fill="#ff38b6" stroke="#f0f0f0" stroke-width="0.02"/><rect x="6" y="2" width="1" height="1" fill="#ff38b6" stroke="#f0f0f0" stroke-width="0.02"/><rect x="5" y="3" width="1" height="1" fill="#ff38b6" stroke="#f0f0f0" stroke-width="0.02"/><rect x="6" y="3" width="1" height="1" fill="#ff38b6" stroke="#f0f0f0" stroke-width="0.02"/>
    </svg>